<svg id="Layer_1" data-name="Layer 1" xmlns="http://www.w3.org/2000/svg" viewBox="0 0 577.56 649"><defs><style>.cls-1{fill:none;}.cls-1,.cls-2{stroke:#000;stroke-miterlimit:10;}</style></defs><path class="cls-1" d="M1080,576" transform="translate(-574.94 -143.5)"/><path class="cls-1" d="M1152,576" transform="translate(-574.94 -143.5)"/><path class="cls-2" d="M1152,360V576A215.88,215.88,0,0,1,936,792H576l59.66-72H936a143.92,143.92,0,0,0,144-144V360A143.92,143.92,0,0,0,936,216H635.66L576,144H936A215.88,215.88,0,0,1,1152,360Z" transform="translate(-574.94 -143.5)"/><path class="cls-2" d="M1035,360a98.94,98.94,0,0,1-99,99H837l-52.2-63H936a36,36,0,0,0,0-72H725.14l-52.2-63H936A98.94,98.94,0,0,1,1035,360Z" transform="translate(-574.94 -143.5)"/><path class="cls-2" d="M1035,576a98.94,98.94,0,0,1-99,99H672.94l52.2-63H936a36,36,0,0,0,0-72H784.8L837,477h99A98.94,98.94,0,0,1,1035,576Z" transform="translate(-574.94 -143.5)"/></svg>